<svg width="200" height="200" viewBox="0 0 200 200" xmlns="http://www.w3.org/2000/svg">
  <!-- Outer circle with text -->
  <circle cx="100" cy="100" r="95" fill="none" stroke="#000" stroke-width="2"/>
  
  <!-- Top text "MUNICIPAL SOCIAL WELFARE AND DEVELOPMENT OFFICE" -->
  <path id="top-text-path" d="M 20 100 A 80 80 0 0 1 180 100" stroke="none" fill="none"/>
  <text font-family="Arial, sans-serif" font-size="11" font-weight="bold" fill="#000">
    <textPath href="#top-text-path" startOffset="0%">
      MUNICIPAL SOCIAL WELFARE AND DEVELOPMENT OFFICE
    </textPath>
  </text>
  
  <!-- Bottom text "DR. JOSE P. RIZAL PALAWAN" -->
  <path id="bottom-text-path" d="M 180 100 A 80 80 0 0 1 20 100" stroke="none" fill="none"/>
  <text font-family="Arial, sans-serif" font-size="12" font-weight="bold" fill="#000">
    <textPath href="#bottom-text-path" startOffset="0%">
      DR. JOSE P. RIZAL PALAWAN
    </textPath>
  </text>
  
  <!-- EST. 1989 banner -->
  <rect x="70" y="155" width="60" height="20" fill="#fff" stroke="#000" stroke-width="1" rx="2"/>
  <text x="100" y="168" text-anchor="middle" font-family="Arial, sans-serif" font-size="10" font-weight="bold" fill="#000">EST. 1989</text>
  
  <!-- Supporting hands -->
  <g transform="translate(50, 110)">
    <!-- Left hand -->
    <path d="M 10 30 Q 15 25 20 30 Q 25 35 30 30 Q 35 25 40 30 Q 45 35 50 30 L 50 40 Q 45 45 40 40 Q 35 45 30 40 Q 25 45 20 40 Q 15 45 10 40 Z" fill="#4A90E2"/>
  </g>
  
  <g transform="translate(100, 110)">
    <!-- Right hand -->
    <path d="M 10 30 Q 15 25 20 30 Q 25 35 30 30 Q 35 25 40 30 Q 45 35 50 30 L 50 40 Q 45 45 40 40 Q 35 45 30 40 Q 25 45 20 40 Q 15 45 10 40 Z" fill="#4A90E2"/>
  </g>
  
  <!-- Central heart with symbols -->
  <g transform="translate(100, 70)">
    <!-- Heart shape with orange border and red fill -->
    <path d="M 0 20 C -20 0 -40 0 -40 20 C -40 40 -20 60 0 80 C 20 60 40 40 40 20 C 40 0 20 0 0 20 Z" fill="#E74C3C" stroke="#F39C12" stroke-width="3"/>
    
    <!-- Blue accent on heart -->
    <path d="M 30 15 C 35 10 40 15 40 20 C 40 40 20 60 0 80 C 10 70 30 50 30 20 Z" fill="#3498DB" opacity="0.7"/>
    
    <!-- Fetus/baby symbol (top left) -->
    <circle cx="-15" cy="5" r="8" fill="#000" opacity="0.7"/>
    <ellipse cx="-15" cy="15" rx="6" ry="10" fill="#000" opacity="0.7"/>
    
    <!-- Family figures (top right) -->
    <g transform="translate(10, 0)">
      <!-- Adult figure 1 -->
      <circle cx="0" cy="5" r="3" fill="#000" opacity="0.7"/>
      <rect x="-2" y="8" width="4" height="12" fill="#000" opacity="0.7"/>
      
      <!-- Adult figure 2 -->
      <circle cx="8" cy="5" r="3" fill="#000" opacity="0.7"/>
      <rect x="6" y="8" width="4" height="12" fill="#000" opacity="0.7"/>
      
      <!-- Child figure -->
      <circle cx="4" cy="15" r="2" fill="#000" opacity="0.7"/>
      <rect x="3" y="17" width="2" height="8" fill="#000" opacity="0.7"/>
    </g>
    
    <!-- Elderly person with cane (bottom left) -->
    <g transform="translate(-20, 25)">
      <circle cx="0" cy="0" r="3" fill="#000" opacity="0.7"/>
      <rect x="-2" y="3" width="4" height="12" fill="#000" opacity="0.7"/>
      <!-- Cane -->
      <line x1="5" y1="15" x2="5" y2="5" stroke="#000" stroke-width="1" opacity="0.7"/>
    </g>
    
    <!-- Tombstone/memorial (bottom right) -->
    <g transform="translate(15, 30)">
      <rect x="0" y="0" width="8" height="12" rx="4" fill="#000" opacity="0.7"/>
      <!-- Cross -->
      <line x1="4" y1="2" x2="4" y2="8" stroke="#fff" stroke-width="1"/>
      <line x1="2" y1="4" x2="6" y2="4" stroke="#fff" stroke-width="1"/>
    </g>
  </g>
  
  <!-- Left and right side dots -->
  <circle cx="15" cy="100" r="3" fill="#E74C3C"/>
  <circle cx="185" cy="100" r="3" fill="#E74C3C"/>
  
  <!-- Book/education symbol above heart -->
  <g transform="translate(100, 45)">
    <path d="M -8 -5 L 8 -5 L 10 0 L 8 5 L -8 5 L -10 0 Z" fill="#E91E63"/>
    <line x1="0" y1="-5" x2="0" y2="5" stroke="#fff" stroke-width="1"/>
    <path d="M -8 -8 L 0 -12 L 8 -8 L 8 -5 L 0 -9 L -8 -5 Z" fill="#C2185B"/>
  </g>
</svg>